<svg xmlns="http://www.w3.org/2000/svg" width="27.027" height="24.469" viewBox="0 0 27.027 24.469">
  <path id="Path_3583" data-name="Path 3583" d="M58.8,1.332a8.012,8.012,0,0,0-6.082,2.833,8.015,8.015,0,0,0-6.079-2.833,7.321,7.321,0,0,0-7.434,7.207v.219c0,5.129,4.593,9.244,11.551,15.591l1.362,1.221a.9.9,0,0,0,1.2,0l1.36-1.216C61.642,18,66.235,13.886,66.235,8.758a7.321,7.321,0,0,0-7.215-7.426H58.8M53.555,22.573l-.273.252-.563.5-.563-.5-.272-.252a82.382,82.382,0,0,1-7.971-7.87c-1.819-2.239-2.625-4.071-2.625-5.948a5.255,5.255,0,0,1,5.145-5.361h.205a5.967,5.967,0,0,1,4.49,2.1l.9,1.066a.9.9,0,0,0,1.376,0l.9-1.066a5.953,5.953,0,0,1,4.49-2.1A5.253,5.253,0,0,1,64.155,8.54v.211c0,1.871-.812,3.71-2.625,5.948a82.276,82.276,0,0,1-7.97,7.87" transform="translate(-39.209 -1.331)" fill="#fff"/>
</svg>
