<svg xmlns="http://www.w3.org/2000/svg" width="142.851" height="33.706" viewBox="0 0 142.851 33.706">
  <g id="Group_3003" data-name="Group 3003" transform="translate(0 -1.481)">
    <g id="Group_3002" data-name="Group 3002" transform="translate(0 1.481)">
      <g id="Group_3001" data-name="Group 3001">
        <path id="Path_1764" data-name="Path 1764" d="M200.154,438.27a1.322,1.322,0,0,0,.175.7.965.965,0,0,0,.376.463,1.412,1.412,0,0,0,.784.177l1.04,1.4h-7.838v-.531a18.184,18.184,0,0,1-2.35.847,11.4,11.4,0,0,1-3.11.379,13.926,13.926,0,0,1-5.185-.9,13.3,13.3,0,0,1-4.3-2.472,10.586,10.586,0,0,1-3.719-8.187v-5.4a8.324,8.324,0,0,0-.347-2.037,4.668,4.668,0,0,0-.841-1.449,1.934,1.934,0,0,0-1.541-.638h-1.034l1.034-1.393h1.337a6.76,6.76,0,0,1,5,1.855A6.677,6.677,0,0,1,181.49,426v4.13a14.48,14.48,0,0,0,.522,3.947,9.433,9.433,0,0,0,1.569,3.232,7.591,7.591,0,0,0,2.585,2.145,5.9,5.9,0,0,0,3.066.786,7.433,7.433,0,0,0,3.312-.639,8.165,8.165,0,0,0,2.147-1.512V419.215h7.838l-.8,1.331a2.108,2.108,0,0,0-1,.206,1.1,1.1,0,0,0-.407.494,1.326,1.326,0,0,0-.175.7Z" transform="translate(-142.234 -418.217)" fill="#fff"/>
        <path id="Path_1765" data-name="Path 1765" d="M258.588,418.234a18.658,18.658,0,0,1,5.867.905,16.257,16.257,0,0,1,4.765,2.441,11.987,11.987,0,0,1,3.224,3.63,9.012,9.012,0,0,1,0,8.951,12.048,12.048,0,0,1-3.224,3.627,16.051,16.051,0,0,1-4.765,2.435,18.522,18.522,0,0,1-5.867.905h-2.151a18.5,18.5,0,0,1-2.034-.115v-2.6a9.725,9.725,0,0,0,4.247,1.261,8.674,8.674,0,0,0,3.655-.722,9.792,9.792,0,0,0,3.049-2.146,10.222,10.222,0,0,0,2.062-3.2,10.1,10.1,0,0,0,.756-3.916,9.915,9.915,0,0,0-.756-3.9,10.324,10.324,0,0,0-2.062-3.168,9.721,9.721,0,0,0-3.049-2.146,8.937,8.937,0,0,0-3.717-.784,9.064,9.064,0,0,0-3.776.784,10.648,10.648,0,0,0-3.08,2.427v28.509h-6.856l-1.336-1.342h1.336a1.439,1.439,0,0,0,.813-.2,1.07,1.07,0,0,0,.406-.492,1.344,1.344,0,0,0,.177-.7V422.713a3.831,3.831,0,0,0-.088-.551,2.933,2.933,0,0,0-.347-.9,2.5,2.5,0,0,0-2.3-1.227l1.165-1.392h6.966c.7-.042,1.416-.094,2.15-.177q.991-.108,2.212-.172c.81-.036,1.662-.063,2.555-.063" transform="translate(-179.132 -417.709)" fill="#fff"/>
        <path id="Path_1766" data-name="Path 1766" d="M314.009,440.756l-1.2-1.335h1.335a1.1,1.1,0,0,0,1.076-.492,1.824,1.824,0,0,0,.262-.786V423.129a4.088,4.088,0,0,0-.349-1.34,3.23,3.23,0,0,0-.844-.956,2.43,2.43,0,0,0-1.541-.437l.957-1.353c2.67-.007,4.137.49,5.379,1.729a6.678,6.678,0,0,1,1.858,4.936v12.317a1.343,1.343,0,0,0,.175.7c.192.425.878.638,1.5.638l1.117,1.392Z" transform="translate(-214.957 -418.127)" fill="#fff"/>
        <path id="Path_1767" data-name="Path 1767" d="M356.98,439.794a9.824,9.824,0,0,0,3.918-.784,10.165,10.165,0,0,0,3.2-2.146,10.3,10.3,0,0,0,2.15-3.2,8.808,8.808,0,0,0,0-7.849,10.274,10.274,0,0,0-2.15-3.194,10.167,10.167,0,0,0-3.2-2.146,10.187,10.187,0,0,0-7.839,0,9.669,9.669,0,0,0-5.347,13.189,10.233,10.233,0,0,0,2.151,3.2,10.119,10.119,0,0,0,3.2,2.146,9.825,9.825,0,0,0,3.921.784m0-21.56a20.471,20.471,0,0,1,6.13.905,16.763,16.763,0,0,1,4.993,2.468,12.594,12.594,0,0,1,3.371,3.66,9.368,9.368,0,0,1,0,8.951,12.267,12.267,0,0,1-3.371,3.632,17.271,17.271,0,0,1-4.993,2.435,21.236,21.236,0,0,1-12.26,0,17.74,17.74,0,0,1-5.026-2.435,11.763,11.763,0,0,1-3.368-3.632,9.542,9.542,0,0,1,0-8.951,12.065,12.065,0,0,1,3.368-3.66,17.209,17.209,0,0,1,5.026-2.468,20.442,20.442,0,0,1,6.13-.905" transform="translate(-229.761 -417.709)" fill="#fff"/>
        <path id="Path_1768" data-name="Path 1768" d="M136.376,439.948a14.143,14.143,0,0,1-2.5,1,27.868,27.868,0,0,1-2.945.69,21.612,21.612,0,0,1-3.886.313,21.986,21.986,0,0,1-6.608-.971,18.425,18.425,0,0,1-5.418-2.661,13.374,13.374,0,0,1-3.665-3.948,9.315,9.315,0,0,1,0-9.647,13.365,13.365,0,0,1,3.665-3.945,18.429,18.429,0,0,1,5.418-2.663,21.984,21.984,0,0,1,6.608-.972,24.2,24.2,0,0,1,7.895,1.379l1.409,4.889a8.207,8.207,0,0,0-3.759-3.2,11.84,11.84,0,0,0-5.545-1.315,10.981,10.981,0,0,0-4.227.814,10.758,10.758,0,0,0-3.446,2.256,10.622,10.622,0,0,0-2.319,3.384,10.393,10.393,0,0,0-.844,4.2,10.626,10.626,0,0,0,.844,4.23,10.811,10.811,0,0,0,5.764,5.763,10.915,10.915,0,0,0,9.742-.659,10.8,10.8,0,0,0,4.007-3.573Z" transform="translate(-110.003 -417.145)" fill="#fff"/>
      </g>
    </g>
  </g>
</svg>
